<svg width="18" height="30" viewBox="0 0 18 30" fill="none" xmlns="http://www.w3.org/2000/svg">
<g clip-path="url(#clip0_121_4028)">
<path fill-rule="evenodd" clip-rule="evenodd" d="M11.4596 8.36499C10.1363 8.2941 8.8839 7.79787 7.91507 7.1126C7.4661 6.80542 7.08803 6.45097 6.75721 6.04926C6.37913 6.2383 5.90653 6.40371 5.38667 6.52186C4.9377 6.64001 4.46511 6.7109 4.01614 6.75816V10.09C4.01614 11.0115 4.48873 11.8858 5.15037 12.5475C5.55208 12.9256 6.00105 13.2564 6.45002 13.4691C6.23735 13.6108 6.00105 13.7526 5.78838 13.8708C5.78838 13.918 5.78838 13.9416 5.78838 13.9653C5.78838 14.2488 5.95379 14.556 6.19009 14.7923C6.45002 15.0523 6.8281 15.2649 7.22981 15.3831C7.39521 15.4303 7.56062 15.454 7.72603 15.454C7.91507 15.454 8.08048 15.4303 8.24589 15.3831C8.6476 15.2649 9.00205 15.0523 9.28561 14.7923C9.52191 14.556 9.68732 14.2488 9.68732 13.9653C9.68732 13.8944 9.66369 13.8235 9.66369 13.7526C9.47465 13.6581 9.28561 13.5399 9.09657 13.4218C9.52191 13.2091 9.94725 12.9019 10.3253 12.5239C10.987 11.8622 11.4596 11.0115 11.4596 10.09V8.36499ZM12.1448 21.5032C11.814 21.1724 11.5304 20.7471 11.3414 20.2981C9.52191 20.3217 8.05685 20.7707 6.96988 21.4323C6.23735 21.8813 5.67023 22.4248 5.33941 22.9683C5.03222 23.4645 4.91407 23.9844 5.00859 24.4333C5.05585 24.6696 5.174 24.8823 5.36304 25.095C6.49728 26.0402 8.62397 25.8275 10.8452 24.9768C12.3339 24.4097 13.8462 23.559 15.0986 22.5902C15.004 22.6138 14.9095 22.6138 14.7914 22.6138C13.7753 22.6138 12.8301 22.1885 12.1448 21.5032ZM12.8537 16.6591C12.3339 17.1317 11.9794 17.7697 11.8849 18.5022C11.8849 18.5495 11.8849 18.6204 11.8849 18.6676C11.8613 18.7385 11.8613 18.7858 11.8613 18.8567C11.8613 19.6837 12.1921 20.4162 12.7356 20.9361C13.2554 21.456 13.988 21.7868 14.7914 21.7868C15.6184 21.7868 16.351 21.456 16.8708 20.9361C17.4143 20.4162 17.7451 19.6837 17.7451 18.8567C17.7451 18.644 17.6979 18.4077 17.6506 18.195C17.6033 17.9824 17.5324 17.7697 17.4379 17.5807C17.2016 17.0844 16.8235 16.6591 16.351 16.3755C15.902 16.092 15.3821 15.9266 14.7914 15.9266C14.0589 15.9266 13.3736 16.2101 12.8537 16.6591ZM9.85273 15.3594C9.47465 15.7375 8.97842 16.0211 8.45856 16.1629C8.22226 16.2338 7.98596 16.2574 7.72603 16.2574C7.48973 16.2574 7.25344 16.2338 7.01714 16.1629C6.47365 16.0211 5.97742 15.7375 5.62297 15.3594C5.33941 15.0759 5.12674 14.7451 5.03222 14.3906C1.27507 17.368 -2.29305 22.5193 1.86581 26.9854C4.96133 30.3172 10.987 28.8994 14.177 26.7963C15.0277 26.2292 15.7129 25.5912 16.1855 24.9532C16.6109 24.3152 16.8708 23.6772 16.8708 23.0864C16.8708 22.8029 16.8236 22.5193 16.729 22.2594C15.264 23.6772 13.1609 24.9768 11.1287 25.733C8.6476 26.6782 6.21372 26.8672 4.84318 25.7093L4.79592 25.6857C4.48873 25.3549 4.2997 25.0004 4.20518 24.5987C4.0634 23.9371 4.22881 23.2282 4.65414 22.5429C5.05585 21.8813 5.69386 21.2433 6.56817 20.7234C7.7024 20.0382 9.23835 19.5419 11.1051 19.471C11.0579 19.282 11.0579 19.0693 11.0579 18.8567C11.0579 18.7858 11.0579 18.7149 11.0579 18.6204C11.0579 18.5495 11.0815 18.455 11.0815 18.3841C11.1996 17.4625 11.6486 16.6355 12.3339 16.0447C12.3811 15.9975 12.4284 15.9502 12.4756 15.9266C12.0739 15.5485 11.625 15.1704 11.1287 14.7923C10.9161 14.6269 10.7034 14.4615 10.4671 14.2961C10.3726 14.6978 10.1599 15.0523 9.85273 15.3594ZM7.72603 1.1815C8.78938 1.1815 9.73458 1.41779 10.5616 1.79587C10.5853 1.72498 10.6325 1.65409 10.6325 1.5832C10.6798 1.39416 10.6798 1.20513 10.6089 1.01609C10.5144 0.827047 10.349 0.638008 10.0654 0.472598C9.5928 0.189039 8.86027 0 7.72603 0C6.61543 0 5.85927 0.189039 5.38667 0.472598C5.10311 0.638008 4.9377 0.827047 4.86681 1.01609C4.77229 1.20513 4.77229 1.39416 4.81955 1.5832C4.84318 1.65409 4.86681 1.72498 4.91407 1.79587C5.71749 1.41779 6.68632 1.1815 7.72603 1.1815ZM8.38767 6.45097C9.33287 7.1126 10.5616 7.56157 11.8613 7.56157C12.0976 7.56157 12.263 7.75061 12.263 7.96328V9.80641C12.5229 9.54648 12.7356 9.16841 12.901 8.74307C13.1845 7.93965 13.2554 6.92356 13.09 5.97837C12.9482 5.00954 12.2866 3.92257 11.2233 3.14278C10.3253 2.45751 9.14383 2.00854 7.72603 2.00854C6.33187 2.00854 5.12674 2.45751 4.22881 3.14278C3.18909 3.92257 2.52745 5.00954 2.36204 5.97837C2.22026 6.92356 2.29115 7.93965 2.57471 8.74307C2.71649 9.16841 2.92916 9.54648 3.18909 9.80641V6.35645C3.18909 6.14378 3.37813 5.95474 3.61443 5.95474C4.08703 5.95474 4.65414 5.86022 5.19763 5.74207C5.59934 5.62392 5.95379 5.50577 6.26098 5.38762C6.00105 4.93865 5.81201 4.46605 5.74112 3.99346C5.71749 3.78079 5.85927 3.56812 6.09557 3.52086C6.30824 3.49723 6.52091 3.63901 6.54454 3.87531C6.61543 4.3479 6.85173 4.8205 7.18255 5.26947C7.18255 5.2931 7.20618 5.31673 7.20618 5.31673C7.51336 5.71844 7.91507 6.12015 8.38767 6.45097Z" fill="#999999"/>
</g>
<defs>
<clipPath id="clip0_121_4028">
<rect width="17.7231" height="30" fill="white"/>
</clipPath>
</defs>
</svg>
