<svg width="16" height="16" viewBox="0 0 16 16" fill="none" xmlns="http://www.w3.org/2000/svg">
<path d="M12.0004 3.99999C11.5938 3.99999 11.2204 3.76666 11.0338 3.40666L10.5538 2.44C10.2471 1.83333 9.4471 1.33333 8.7671 1.33333H7.24044C6.55377 1.33333 5.75377 1.83333 5.4471 2.44L4.9671 3.40666C4.78044 3.76666 4.4071 3.99999 4.00044 3.99999C2.55377 3.99999 1.4071 5.21999 1.50044 6.66L1.8471 12.1667C1.9271 13.54 2.6671 14.6667 4.5071 14.6667H11.4938C13.3338 14.6667 14.0671 13.54 14.1538 12.1667L14.5004 6.66C14.5938 5.21999 13.4471 3.99999 12.0004 3.99999ZM7.00044 4.83333H9.00044C9.27377 4.83333 9.50044 5.05999 9.50044 5.33333C9.50044 5.60666 9.27377 5.83333 9.00044 5.83333H7.00044C6.7271 5.83333 6.50044 5.60666 6.50044 5.33333C6.50044 5.05999 6.7271 4.83333 7.00044 4.83333ZM8.00044 12.08C6.76044 12.08 5.7471 11.0733 5.7471 9.82666C5.7471 8.58 6.75377 7.57333 8.00044 7.57333C9.2471 7.57333 10.2538 8.58 10.2538 9.82666C10.2538 11.0733 9.24044 12.08 8.00044 12.08Z" fill="white"/>
</svg>
