<svg width="16" height="16" viewBox="0 0 16 16" fill="none" xmlns="http://www.w3.org/2000/svg">
<path d="M12.8263 3.72012H12.5597L10.3063 1.46679C10.1263 1.28679 9.83301 1.28679 9.64634 1.46679C9.46634 1.64679 9.46634 1.94012 9.64634 2.12679L11.2397 3.72012H4.75967L6.35301 2.12679C6.53301 1.94679 6.53301 1.65345 6.35301 1.46679C6.17301 1.28679 5.87967 1.28679 5.69301 1.46679L3.44634 3.72012H3.17967C2.57967 3.72012 1.33301 3.72012 1.33301 5.42679C1.33301 6.07345 1.46634 6.50012 1.74634 6.78012C1.90634 6.94679 2.09967 7.03345 2.30634 7.08012C2.49967 7.12679 2.70634 7.13345 2.90634 7.13345H13.093C13.2997 7.13345 13.493 7.12012 13.6797 7.08012C14.2397 6.94679 14.6663 6.54679 14.6663 5.42679C14.6663 3.72012 13.4197 3.72012 12.8263 3.72012Z" fill="#1F1E1E"/>
<path d="M12.7004 8H3.2471C2.83376 8 2.52043 8.36667 2.5871 8.77333L3.1471 12.2C3.33376 13.3467 3.83376 14.6667 6.05376 14.6667H9.79376C12.0404 14.6667 12.4404 13.54 12.6804 12.28L13.3538 8.79333C13.4338 8.38 13.1204 8 12.7004 8ZM7.07376 12.3C7.07376 12.56 6.8671 12.7667 6.61376 12.7667C6.35376 12.7667 6.1471 12.56 6.1471 12.3V10.1C6.1471 9.84667 6.35376 9.63333 6.61376 9.63333C6.8671 9.63333 7.07376 9.84667 7.07376 10.1V12.3ZM9.9271 12.3C9.9271 12.56 9.72043 12.7667 9.46043 12.7667C9.2071 12.7667 8.99376 12.56 8.99376 12.3V10.1C8.99376 9.84667 9.2071 9.63333 9.46043 9.63333C9.72043 9.63333 9.9271 9.84667 9.9271 10.1V12.3Z" fill="#1F1E1E"/>
</svg>
