<svg width="20" height="20" viewBox="0 0 20 20" fill="none" xmlns="http://www.w3.org/2000/svg">
<path d="M17.5 18.3333H2.5C2.15833 18.3333 1.875 18.05 1.875 17.7083C1.875 17.3667 2.15833 17.0833 2.5 17.0833H17.5C17.8417 17.0833 18.125 17.3667 18.125 17.7083C18.125 18.05 17.8417 18.3333 17.5 18.3333Z" fill="#969696"/>
<path d="M15.8495 2.9C14.2328 1.28333 12.6495 1.24166 10.9912 2.9L9.98283 3.90833C9.89949 3.99166 9.86616 4.125 9.89949 4.24166C10.5328 6.45 12.2995 8.21666 14.5078 8.85C14.5412 8.85833 14.5745 8.86666 14.6078 8.86666C14.6995 8.86666 14.7828 8.83333 14.8495 8.76666L15.8495 7.75833C16.6745 6.94166 17.0745 6.15 17.0745 5.35C17.0828 4.525 16.6828 3.725 15.8495 2.9Z" fill="#969696"/>
<path d="M13.0079 9.60833C12.7663 9.49167 12.5329 9.375 12.3079 9.24167C12.1246 9.13333 11.9496 9.01667 11.7746 8.89167C11.6329 8.8 11.4663 8.66667 11.3079 8.53333C11.2913 8.525 11.2329 8.475 11.1663 8.40833C10.8913 8.175 10.5829 7.875 10.3079 7.54167C10.2829 7.525 10.2413 7.46667 10.1829 7.39167C10.0996 7.29167 9.95795 7.125 9.83295 6.93333C9.73295 6.80833 9.61628 6.625 9.50795 6.44167C9.37461 6.21667 9.25795 5.99167 9.14128 5.75833C9.12363 5.72051 9.10655 5.68287 9.08998 5.64545C8.967 5.36768 8.6048 5.28648 8.39001 5.50128L3.61628 10.275C3.50795 10.3833 3.40795 10.5917 3.38295 10.7333L2.93295 13.925C2.84961 14.4917 3.00795 15.025 3.35795 15.3833C3.65795 15.675 4.07461 15.8333 4.52461 15.8333C4.62461 15.8333 4.72461 15.825 4.82461 15.8083L8.02461 15.3583C8.17461 15.3333 8.38295 15.2333 8.48295 15.125L13.2507 10.3572C13.467 10.1409 13.3854 9.76973 13.1041 9.64968C13.0724 9.63616 13.0404 9.62239 13.0079 9.60833Z" fill="#969696"/>
</svg>
