<svg width="26" height="25" viewBox="0 0 26 25" fill="none" xmlns="http://www.w3.org/2000/svg">
<g clip-path="url(#clip0_121_4019)">
<path fill-rule="evenodd" clip-rule="evenodd" d="M19.6524 19.2741C19.1728 18.3114 18.6057 17.4479 17.9651 16.6389C16.5045 16.4165 15.2664 15.7908 15.1697 14.6613C14.4523 15.1277 13.624 15.4175 12.7061 15.4477C11.8109 15.4771 10.9086 15.2556 10.1266 14.7533C9.83834 15.8321 8.88039 16.4487 7.74893 16.7126C7.13201 17.5003 6.58495 18.3406 6.11979 19.2741L8.16989 19.2241L12.8861 23.3252L17.6023 19.2241L19.6524 19.2741ZM19.98 16.7039C20.8902 17.0957 21.7417 17.5085 22.4693 17.9647C25.5496 19.8959 25.3497 21.9188 25.7722 25H0C0.316767 21.8798 0.222587 19.8959 3.30287 17.9647C3.95971 17.5529 4.71737 17.1764 5.52819 16.8187C4.24003 16.6652 3.12438 16.1571 2.87174 15.4456C5.08609 15.2657 5.90002 12.9651 6.1729 10.5797C6.58847 6.92788 6.01192 2.22944 10.407 0.452968C13.8969 -0.958413 18.4099 0.941532 18.9021 5.96953C18.8816 9.38626 19.8424 15.1972 22.9005 15.4456C22.6541 16.1397 21.405 16.5888 19.98 16.7039ZM15.6014 13.5403C17.544 11.3919 17.8389 9.22931 17.2853 6.46972C15.9499 5.85074 15.0763 4.48999 14.6289 2.44563C14.0942 6.33774 9.31439 6.17077 8.11241 6.87891C8.11241 9.2719 7.96814 11.7316 9.73143 13.633C11.3375 15.3648 14.0834 15.1479 15.6014 13.5403ZM11.2984 20.8647L12.2326 17.6225L11.7746 17.1215C11.5679 16.8204 11.5231 16.5567 11.6377 16.3301C11.8855 15.8394 12.399 15.9307 12.8783 15.9307C13.3808 15.9307 14.0011 15.8357 14.1583 16.4645C14.2108 16.6747 14.1448 16.8949 13.9976 17.1215L13.5396 17.6225L14.4738 20.8647L12.8861 22.1191L11.2984 20.8647Z" fill="#999999"/>
</g>
<defs>
<clipPath id="clip0_121_4019">
<rect width="25.7722" height="25" fill="white"/>
</clipPath>
</defs>
</svg>
