<svg width="22" height="22" viewBox="0 0 22 22" fill="none" xmlns="http://www.w3.org/2000/svg">
<g clip-path="url(#clip0_111_2392)">
<rect width="22" height="22" rx="4" fill="#BDD4FF"/>
<path d="M9.34679 16.3449V15.8684H9.96961C10.1704 15.8684 10.3324 15.7064 10.3324 15.5056V15.0219C10.3324 14.8211 10.1704 14.6591 9.96961 14.6591H9.34679V13.896C9.787 13.8162 10.2042 13.6493 10.5767 13.4026C10.1377 13.2308 9.73379 12.9757 9.38307 12.6419C9.17266 12.7084 8.94771 12.7435 8.71431 12.7398C7.56301 12.7253 6.62455 11.7881 6.60883 10.6368C6.59311 9.5121 7.45417 8.58091 8.55104 8.48295C8.73245 8.07419 8.99004 7.69808 9.31535 7.37156C9.33227 7.35463 9.34921 7.33891 9.36493 7.32319C9.16176 7.28449 8.95255 7.26514 8.74091 7.26514C7.84841 7.26514 7.00913 7.61222 6.37785 8.2435C5.75866 8.8651 5.41279 9.68625 5.4007 10.5606C5.3886 11.4555 5.73689 12.3214 6.36575 12.9575C6.85433 13.4509 7.46868 13.7738 8.13745 13.896V14.6591H7.51463C7.31388 14.6591 7.15183 14.8211 7.15183 15.0219V15.5056C7.15183 15.7064 7.31388 15.8684 7.51463 15.8684H8.13745V16.3449C8.13745 16.5457 8.2995 16.7077 8.50025 16.7077H8.98399C9.18475 16.7077 9.34679 16.5457 9.34679 16.3449Z" fill="#2B2B2B"/>
<path d="M10.7686 8.8272C10.6259 8.96991 10.5134 9.13438 10.4336 9.31215C10.7093 9.67133 10.8738 10.1212 10.8738 10.6086C10.8738 10.7972 10.8484 10.9811 10.8024 11.1552C11.1048 11.4406 11.4978 11.5978 11.9163 11.5978C11.9223 11.5978 11.9296 11.5978 11.9356 11.5978C12.0336 11.2822 12.0844 10.9496 12.0844 10.6086C12.0844 9.81766 11.811 9.06786 11.3092 8.46924C11.1096 8.54906 10.9258 8.66999 10.7686 8.8272Z" fill="#2B2B2B"/>
<path d="M14.1129 6.50183H14.5349L13.7525 7.28427C13.2155 6.91663 12.5818 6.7183 11.9179 6.7183C11.1572 6.7183 10.4352 6.9771 9.85476 7.45479C9.77252 7.52252 9.6915 7.59508 9.61531 7.67248C9.37102 7.91676 9.17027 8.1937 9.01668 8.49362C8.78449 8.94713 8.66113 9.45142 8.66113 9.97507C8.66113 10.8446 8.99975 11.6621 9.61531 12.2777C9.67819 12.3405 9.74229 12.3998 9.8088 12.4554C10.1535 12.7493 10.5513 12.9658 10.9782 13.094C11.2794 13.1847 11.595 13.2306 11.9179 13.2306C12.7874 13.2306 13.6049 12.892 14.2205 12.2765C14.8348 11.6621 15.1747 10.8434 15.1747 9.97386C15.1747 9.30993 14.9763 8.67502 14.6087 8.13928L15.3911 7.35684V7.7789C15.3911 7.97965 15.5532 8.1417 15.7539 8.1417H16.2377C16.4384 8.1417 16.6005 7.97965 16.6005 7.7789V5.89715V5.89594C16.6005 5.73873 16.5364 5.58272 16.4251 5.47025C16.3139 5.35899 16.1578 5.29248 16.0006 5.29248C15.9994 5.29248 15.9982 5.29248 15.997 5.29248H14.1128C13.9121 5.29248 13.75 5.45453 13.75 5.65528V6.13902C13.7501 6.33977 13.9121 6.50183 14.1129 6.50183ZM13.3643 11.4215C12.9773 11.8084 12.4633 12.0213 11.9167 12.0213C11.8696 12.0213 11.8224 12.0201 11.7752 12.0165C11.3592 11.9886 10.9674 11.8351 10.6433 11.5763C10.5828 11.5279 10.526 11.4771 10.4703 11.4215C9.81123 10.7624 9.69635 9.76345 10.1257 8.98584C10.2164 8.82137 10.3313 8.66657 10.4703 8.5275C10.6275 8.37028 10.8065 8.24088 11 8.14413C11.2806 8.00264 11.5938 7.92766 11.9167 7.92766C12.4633 7.92766 12.9773 8.1405 13.3643 8.5275C14.1625 9.32565 14.1625 10.6245 13.3643 11.4215Z" fill="#2B2B2B"/>
</g>
<defs>
<clipPath id="clip0_111_2392">
<rect width="22" height="22" fill="white"/>
</clipPath>
</defs>
</svg>
