<svg width="26" height="26" viewBox="0 0 26 26" fill="none" xmlns="http://www.w3.org/2000/svg">
<path d="M23.0206 20.0092L21.2331 20.4317C20.8323 20.5292 20.5181 20.8325 20.4314 21.2334L20.0523 22.8259C19.8464 23.6925 18.7414 23.9634 18.1673 23.2809L14.9281 19.5542C14.6681 19.2509 14.8089 18.7742 15.1989 18.6767C17.1164 18.2109 18.8389 17.1384 20.1064 15.6109C20.3123 15.3617 20.6806 15.3292 20.9081 15.5567L23.3131 17.9617C24.1364 18.785 23.8439 19.8142 23.0206 20.0092Z" fill="#1998F1"/>
<path d="M2.92542 20.0092L4.71292 20.4317C5.11375 20.5292 5.42792 20.8325 5.51459 21.2334L5.89375 22.8259C6.09959 23.6925 7.20459 23.9634 7.77875 23.2809L11.0179 19.5542C11.2779 19.2509 11.1371 18.7742 10.7471 18.6767C8.82959 18.2109 7.10709 17.1384 5.83959 15.6109C5.63375 15.3617 5.26542 15.3292 5.03792 15.5567L2.63292 17.9617C1.80959 18.785 2.10209 19.8142 2.92542 20.0092Z" fill="#1998F1"/>
<path d="M13.0003 2.16675C8.80783 2.16675 5.41699 5.55758 5.41699 9.75008C5.41699 11.3209 5.88283 12.7617 6.68449 13.9642C7.85449 15.6976 9.70699 16.9217 11.8628 17.2359C12.2312 17.3009 12.6103 17.3334 13.0003 17.3334C13.3903 17.3334 13.7695 17.3009 14.1378 17.2359C16.2937 16.9217 18.1462 15.6976 19.3162 13.9642C20.1178 12.7617 20.5837 11.3209 20.5837 9.75008C20.5837 5.55758 17.1928 2.16675 13.0003 2.16675ZM16.3153 9.51175L15.4162 10.4109C15.2645 10.5626 15.1778 10.8551 15.232 11.0717L15.492 12.1876C15.6978 13.0651 15.232 13.4117 14.452 12.9459L13.3687 12.3067C13.1737 12.1876 12.8487 12.1876 12.6537 12.3067L11.5703 12.9459C10.7903 13.4009 10.3245 13.0651 10.5303 12.1876L10.7903 11.0717C10.8337 10.8659 10.7578 10.5626 10.6062 10.4109L9.68533 9.51175C9.15449 8.98091 9.32783 8.45008 10.0645 8.33091L11.2237 8.13592C11.4187 8.10342 11.6462 7.93008 11.7328 7.75675L12.372 6.47842C12.7187 5.78508 13.282 5.78508 13.6287 6.47842L14.2678 7.75675C14.3545 7.93008 14.582 8.10342 14.7878 8.13592L15.947 8.33091C16.6728 8.45008 16.8462 8.98091 16.3153 9.51175Z" fill="#1998F1"/>
</svg>
