<svg width="22" height="22" viewBox="0 0 22 22" fill="none" xmlns="http://www.w3.org/2000/svg">
<g clip-path="url(#clip0_111_2412)">
<rect width="22" height="22" rx="4" fill="#FFBDD9"/>
<path d="M11.2494 5.64401C11.2186 5.60803 11.1803 5.57915 11.1373 5.55935C11.0943 5.53955 11.0475 5.5293 11.0001 5.5293C10.9528 5.5293 10.906 5.53955 10.863 5.55935C10.8199 5.57915 10.7817 5.60803 10.7509 5.64401C9.8852 6.65655 7.0625 10.1571 7.0625 12.7501C7.0625 15.1665 8.58391 16.6876 11 16.6876C13.4161 16.6876 14.9375 15.1665 14.9375 12.7501C14.9375 10.1571 12.1148 6.65655 11.2494 5.64401ZM11.4375 15.2657C11.3849 15.2658 11.3331 15.2533 11.2864 15.2292C11.2397 15.2052 11.1995 15.1702 11.1691 15.1273C11.1387 15.0845 11.119 15.0349 11.1118 14.9829C11.1045 14.9308 11.1099 14.8778 11.1274 14.8282C11.1498 14.7636 11.192 14.7076 11.248 14.6684C11.304 14.6291 11.371 14.6085 11.4394 14.6095C11.8737 14.6085 12.29 14.4356 12.5971 14.1285C12.9042 13.8214 13.0772 13.4051 13.0781 12.9708C13.0771 12.9024 13.0977 12.8354 13.137 12.7794C13.1763 12.7233 13.2322 12.6811 13.2969 12.6588C13.3464 12.6413 13.3995 12.6359 13.4515 12.6431C13.5036 12.6504 13.5531 12.67 13.596 12.7004C13.6389 12.7308 13.6738 12.7711 13.6979 12.8178C13.722 12.8645 13.7345 12.9163 13.7344 12.9688C13.7337 13.5778 13.4915 14.1617 13.0609 14.5923C12.6303 15.0229 12.0465 15.2651 11.4375 15.2657Z" fill="#2B2B2B"/>
</g>
<defs>
<clipPath id="clip0_111_2412">
<rect width="22" height="22" fill="white"/>
</clipPath>
</defs>
</svg>
