<svg width="22" height="22" viewBox="0 0 22 22" fill="none" xmlns="http://www.w3.org/2000/svg">
<g clip-path="url(#clip0_111_2464)">
<rect width="22" height="22" rx="4" fill="#FFBDBD"/>
<g clip-path="url(#clip1_111_2464)">
<path d="M11 17.4531C7.43438 17.4531 4.54688 14.5656 4.54688 11C4.54688 7.43438 7.43438 4.54688 11 4.54688C14.5656 4.54688 17.4531 7.43438 17.4531 11C17.4531 14.5656 14.5656 17.4531 11 17.4531ZM10.5187 14.2594C10.65 14.3797 10.8031 14.4398 10.9781 14.4398C11.1477 14.4398 11.2953 14.3797 11.4266 14.2594C11.5578 14.1391 11.618 13.9695 11.618 13.7562C11.618 13.5648 11.5578 13.4008 11.432 13.2695C11.3062 13.1383 11.1586 13.0727 10.9781 13.0727C10.7977 13.0727 10.6391 13.1383 10.5133 13.2695C10.3875 13.4008 10.3219 13.5594 10.3219 13.7562C10.3219 13.9695 10.393 14.1391 10.5187 14.2594ZM12.9195 8.42969C12.7445 8.15078 12.4984 7.92656 12.1813 7.7625C11.8641 7.59844 11.4977 7.51641 11.082 7.51641C10.6336 7.51641 10.2453 7.61484 9.90625 7.80625C9.57266 8.00312 9.31563 8.24922 9.14062 8.54453C8.96562 8.84531 8.87812 9.13516 8.87812 9.425C8.87812 9.56719 8.93281 9.69297 9.04219 9.81875C9.15156 9.93906 9.28828 9.99922 9.44688 9.99922C9.72031 9.99922 9.90625 9.82422 9.99922 9.48516C10.1031 9.15703 10.2289 8.90547 10.3766 8.73594C10.5242 8.56641 10.7594 8.48438 11.0711 8.48438C11.3391 8.48438 11.5633 8.56641 11.7328 8.73594C11.9023 8.90547 11.9898 9.10781 11.9898 9.35391C11.9898 9.47969 11.9625 9.59453 11.9078 9.70391C11.8531 9.81328 11.782 9.90625 11.7 9.99375C11.618 10.0812 11.4867 10.207 11.3008 10.382C11.093 10.5789 10.9234 10.743 10.8031 10.8852C10.6773 11.0273 10.5789 11.1914 10.5078 11.3773C10.4313 11.5633 10.3984 11.7875 10.3984 12.0445C10.3984 12.2469 10.4477 12.4055 10.5516 12.5039C10.6555 12.6078 10.7812 12.657 10.9289 12.657C11.2133 12.657 11.3883 12.4984 11.4375 12.1813C11.4703 12.0336 11.4922 11.9297 11.5086 11.8695C11.525 11.8094 11.5469 11.7492 11.5742 11.6891C11.6016 11.6289 11.6453 11.5633 11.7055 11.4922C11.7656 11.4211 11.8422 11.3391 11.9406 11.2406C12.2961 10.907 12.5367 10.6664 12.6734 10.5242C12.8102 10.382 12.925 10.2125 13.0289 10.0211C13.1273 9.82422 13.1766 9.6 13.1766 9.3375C13.182 9.01484 13.0945 8.71406 12.9195 8.42969Z" fill="#2B2B2B"/>
</g>
</g>
<defs>
<clipPath id="clip0_111_2464">
<rect width="22" height="22" fill="white"/>
</clipPath>
<clipPath id="clip1_111_2464">
<rect width="14" height="14" fill="white" transform="translate(4 4)"/>
</clipPath>
</defs>
</svg>
