<svg width="17" height="17" viewBox="0 0 17 17" fill="none" xmlns="http://www.w3.org/2000/svg">
<path d="M6.20903 2.45881V1.40505C6.20903 1.11703 5.97018 0.878174 5.68215 0.878174C5.39412 0.878174 5.15527 1.11703 5.15527 1.40505V2.50096C5.3309 2.47988 5.49248 2.45881 5.68215 2.45881H6.20903Z" fill="white"/>
<path d="M11.8282 2.50096V1.40505C11.8282 1.11703 11.5893 0.878174 11.3013 0.878174C11.0133 0.878174 10.7744 1.11703 10.7744 1.40505V2.45881H11.3013C11.491 2.45881 11.6525 2.47988 11.8282 2.50096Z" fill="white"/>
<path d="M11.8284 2.50095V3.51256C11.8284 3.80058 11.5895 4.03944 11.3015 4.03944C11.0135 4.03944 10.7746 3.80058 10.7746 3.51256V2.4588H6.20834V3.51256C6.20834 3.80058 5.96949 4.03944 5.68146 4.03944C5.39344 4.03944 5.15459 3.80058 5.15459 3.51256V2.50095C3.0822 2.69063 2.16895 4.02539 2.16895 5.97132V11.9426C2.16895 14.0501 3.2227 15.4551 5.68146 15.4551H11.3015C13.7603 15.4551 14.814 14.0501 14.814 11.9426V5.97132C14.814 4.02539 13.9008 2.69063 11.8284 2.50095ZM8.49148 11.767H5.68146C5.39344 11.767 5.15459 11.5281 5.15459 11.2401C5.15459 10.9521 5.39344 10.7132 5.68146 10.7132H8.49148C8.77951 10.7132 9.01836 10.9521 9.01836 11.2401C9.01836 11.5281 8.77951 11.767 8.49148 11.767ZM11.3015 8.25446H5.68146C5.39344 8.25446 5.15459 8.01561 5.15459 7.72758C5.15459 7.43955 5.39344 7.2007 5.68146 7.2007H11.3015C11.5895 7.2007 11.8284 7.43955 11.8284 7.72758C11.8284 8.01561 11.5895 8.25446 11.3015 8.25446Z" fill="white"/>
</svg>
