<svg width="20" height="20" viewBox="0 0 20 20" fill="none" xmlns="http://www.w3.org/2000/svg">
<path d="M16.4539 6.15594L11.9667 3.0165C10.7437 2.15958 8.86622 2.20632 7.6899 3.11777L3.78702 6.16373C3.008 6.77137 2.39258 8.0178 2.39258 8.99936V14.3746C2.39258 16.3611 4.00515 17.9814 5.99164 17.9814H14.3895C16.376 17.9814 17.9885 16.3689 17.9885 14.3824V9.10063C17.9885 8.04896 17.3108 6.75579 16.4539 6.15594ZM10.7748 14.8654C10.7748 15.1848 10.51 15.4496 10.1906 15.4496C9.87116 15.4496 9.60629 15.1848 9.60629 14.8654V12.5283C9.60629 12.2089 9.87116 11.944 10.1906 11.944C10.51 11.944 10.7748 12.2089 10.7748 12.5283V14.8654Z" fill="white"/>
</svg>
