<svg width="25" height="25" viewBox="0 0 25 25" fill="none" xmlns="http://www.w3.org/2000/svg">
<g clip-path="url(#clip0_121_4048)">
<path d="M12.4997 6.16046C9.00406 6.16046 6.16016 9.00431 6.16016 12.4999C6.16016 15.9956 9.00406 18.8395 12.4997 18.8395C15.9953 18.8395 18.8392 15.9956 18.8392 12.4999C18.8392 9.00437 15.9953 6.16046 12.4997 6.16046Z" fill="#999999"/>
<path d="M21.9443 12.5L24.2658 9.38019C24.4245 9.167 24.4699 8.89006 24.3878 8.63728C24.3056 8.3845 24.1061 8.18721 23.8524 8.10794L20.1405 6.94853L20.1848 3.06C20.1879 2.79421 20.0619 2.54346 19.8469 2.38722C19.6318 2.23099 19.3544 2.18862 19.1026 2.27368L15.4181 3.5175L13.1685 0.3456C13.0147 0.128794 12.7654 0 12.4996 0C12.2338 0 11.9846 0.128794 11.8308 0.3456L9.58104 3.51756L5.89653 2.27374C5.64469 2.18873 5.36725 2.23104 5.15225 2.38728C4.93725 2.54351 4.81124 2.79427 4.8143 3.06006L4.85869 6.94858L1.1468 8.108C0.89309 8.18726 0.693558 8.38456 0.611449 8.63733C0.529286 8.89011 0.574768 9.167 0.733464 9.38025L3.05498 12.5001L0.733464 15.6199C0.574768 15.8331 0.52934 16.11 0.611449 16.3628C0.693558 16.6156 0.893145 16.8128 1.1468 16.8921L4.85869 18.0515L4.8143 21.94C4.81124 22.2058 4.93725 22.4565 5.15225 22.6128C5.36731 22.769 5.64463 22.8113 5.89653 22.7263L9.58104 21.4825L11.8308 24.6545C11.9846 24.8713 12.2338 25.0001 12.4996 25.0001C12.7654 25.0001 13.0147 24.8713 13.1685 24.6545L15.4182 21.4825L19.1027 22.7263C19.3545 22.8113 19.6319 22.769 19.8469 22.6128C20.0619 22.4565 20.1879 22.2058 20.1849 21.9401L20.1406 18.0515L23.8525 16.8921C24.1062 16.8128 24.3057 16.6156 24.3879 16.3628C24.47 16.11 24.4245 15.8331 24.2658 15.6199L21.9443 12.5ZM12.4996 20.4795C8.0997 20.4795 4.52009 16.8999 4.52009 12.4999C4.52009 8.10002 8.0997 4.52047 12.4996 4.52047C16.8996 4.52047 20.4792 8.10002 20.4792 12.4999C20.4792 16.8999 16.8996 20.4795 12.4996 20.4795Z" fill="#999999"/>
</g>
<defs>
<clipPath id="clip0_121_4048">
<rect width="25" height="25" fill="white"/>
</clipPath>
</defs>
</svg>
