<svg width="22" height="22" viewBox="0 0 22 22" fill="none" xmlns="http://www.w3.org/2000/svg">
<g clip-path="url(#clip0_111_2425)">
<rect width="22" height="22" rx="4" fill="#FDD17B"/>
<path d="M14.9262 12.5575L12.5054 14.9783C12.4121 15.0716 12.3246 15.2525 12.3012 15.3808L12.1671 16.3083C12.1204 16.6408 12.3537 16.88 12.6862 16.8275L13.6137 16.6933C13.7421 16.6758 13.9229 16.5825 14.0162 16.4891L16.4371 14.0683C16.8512 13.6541 17.0496 13.1641 16.4371 12.5516C15.8304 11.945 15.3462 12.1375 14.9262 12.5575Z" fill="#2B2B2B"/>
<path d="M14.582 12.9019C14.7862 13.6369 15.3637 14.2085 16.0987 14.4185L14.582 12.9019Z" fill="#2B2B2B"/>
<path d="M5.18452 12.5342C5.18452 12.5517 5.17285 12.575 5.17285 12.5925C5.70952 13.6658 6.58452 14.5467 7.65785 15.0775C7.67535 15.0775 7.69868 15.0658 7.71618 15.0658C7.51785 14.3892 7.36618 13.695 7.25535 13.0008C6.55535 12.8842 5.86118 12.7325 5.18452 12.5342Z" fill="#2B2B2B"/>
<path d="M15.124 7.751C14.5757 6.60184 13.6482 5.67434 12.5049 5.13184C12.7149 5.826 12.8899 6.53767 13.0065 7.24934C13.7182 7.366 14.4299 7.53517 15.124 7.751Z" fill="#2B2B2B"/>
<path d="M5.12598 7.75072C5.82598 7.54072 6.53764 7.36572 7.24931 7.24906C7.36598 6.55489 7.51181 5.86656 7.71014 5.18989C7.69264 5.18989 7.66931 5.17822 7.65181 5.17822C6.55514 5.72072 5.66264 6.63656 5.12598 7.75072Z" fill="#2B2B2B"/>
<path d="M12.0618 7.12683C11.9218 6.3685 11.7468 5.61016 11.496 4.87516C11.4843 4.83433 11.4843 4.79933 11.4785 4.75266C11.0468 4.64766 10.5918 4.5835 10.1251 4.5835C9.65264 4.5835 9.20348 4.64766 8.76598 4.7585C8.76014 4.79933 8.76598 4.83433 8.75431 4.881C8.50931 5.616 8.32848 6.3685 8.18848 7.12683C9.47764 6.98683 10.7726 6.98683 12.0618 7.12683Z" fill="#2B2B2B"/>
<path d="M7.12634 8.18848C6.36217 8.32848 5.61551 8.50931 4.87467 8.75431C4.83384 8.76598 4.79884 8.76598 4.75801 8.77181C4.64717 9.20348 4.58301 9.65848 4.58301 10.1251C4.58301 10.5976 4.64717 11.0468 4.75801 11.4843C4.79884 11.4901 4.83384 11.4843 4.88051 11.496C5.61551 11.741 6.36801 11.9218 7.13217 12.0618C6.98634 10.7726 6.98634 9.47764 7.12634 8.18848Z" fill="#2B2B2B"/>
<path d="M15.4914 8.77181C15.4505 8.77181 15.4155 8.76598 15.3689 8.75431C14.6339 8.50931 13.8755 8.32848 13.1172 8.18848C13.263 9.47764 13.263 10.7726 13.1172 12.056C13.8755 11.916 14.6339 11.741 15.3689 11.4901C15.4097 11.4785 15.4447 11.4843 15.4914 11.4785C15.5964 11.041 15.6664 10.5918 15.6664 10.1193C15.6664 9.65848 15.6022 9.20931 15.4914 8.77181Z" fill="#2B2B2B"/>
<path d="M8.18848 13.1235C8.32848 13.8877 8.50348 14.6402 8.75431 15.3752C8.76598 15.416 8.76014 15.451 8.76598 15.4977C9.20348 15.6027 9.65264 15.6668 10.1251 15.6668C10.5918 15.6668 11.0468 15.6027 11.4785 15.4918C11.4843 15.451 11.4843 15.416 11.496 15.3693C11.741 14.6343 11.9218 13.8818 12.0618 13.1177C11.4201 13.1877 10.7726 13.2402 10.1251 13.2402C9.47764 13.2402 8.83014 13.1935 8.18848 13.1235Z" fill="#2B2B2B"/>
<path d="M8.0541 8.0541C7.8791 9.43077 7.8791 10.8191 8.0541 12.2016C9.43077 12.3766 10.8191 12.3766 12.2016 12.2016C12.3766 10.8249 12.3766 9.4366 12.2016 8.0541C10.8191 7.8791 9.43077 7.8791 8.0541 8.0541Z" fill="#2B2B2B"/>
</g>
<defs>
<clipPath id="clip0_111_2425">
<rect width="22" height="22" fill="white"/>
</clipPath>
</defs>
</svg>
