<svg width="22" height="22" viewBox="0 0 22 22" fill="none" xmlns="http://www.w3.org/2000/svg">
<g clip-path="url(#clip0_358_1140)">
<rect width="22" height="22" rx="4" fill="#FF7C7C"/>
<path fill-rule="evenodd" clip-rule="evenodd" d="M7.5 5.1665C7.03587 5.1665 6.59075 5.35088 6.26256 5.67907C5.93437 6.00726 5.75 6.45238 5.75 6.9165V15.0832C5.75 15.5473 5.93437 15.9924 6.26256 16.3206C6.59075 16.6488 7.03587 16.8332 7.5 16.8332H11C11.4641 16.8332 11.9092 16.6488 12.2374 16.3206C12.5656 15.9924 12.75 15.5473 12.75 15.0832V6.9165C12.75 6.45238 12.5656 6.00726 12.2374 5.67907C11.9092 5.35088 11.4641 5.1665 11 5.1665H7.5ZM13.5043 8.25409C13.6136 8.14473 13.762 8.0833 13.9167 8.0833C14.0713 8.0833 14.2197 8.14473 14.3291 8.25409L16.6624 10.5874C16.7718 10.6968 16.8332 10.8452 16.8332 10.9998C16.8332 11.1545 16.7718 11.3029 16.6624 11.4123L14.3291 13.7456C14.2191 13.8518 14.0717 13.9106 13.9188 13.9093C13.7658 13.908 13.6195 13.8466 13.5114 13.7385C13.4032 13.6303 13.3419 13.484 13.3405 13.3311C13.3392 13.1781 13.398 13.0308 13.5043 12.9208L14.8418 11.5832H9.83333C9.67862 11.5832 9.53025 11.5217 9.42085 11.4123C9.31146 11.3029 9.25 11.1545 9.25 10.9998C9.25 10.8451 9.31146 10.6968 9.42085 10.5874C9.53025 10.478 9.67862 10.4165 9.83333 10.4165H14.8418L13.5043 9.07892C13.3949 8.96953 13.3335 8.82118 13.3335 8.6665C13.3335 8.51183 13.3949 8.36348 13.5043 8.25409Z" fill="#2A2A2A"/>
</g>
<defs>
<clipPath id="clip0_358_1140">
<rect width="22" height="22" fill="white"/>
</clipPath>
</defs>
</svg>
