<svg width="27" height="25" viewBox="0 0 27 25" fill="none" xmlns="http://www.w3.org/2000/svg">
<g clip-path="url(#clip0_121_4012)">
<path fill-rule="evenodd" clip-rule="evenodd" d="M5.97807 4.58917C9.3439 0.430171 13.2229 -1.83144 16.136 1.8682C19.4738 2.0435 20.7731 7.14807 18.4795 9.66784C18.8814 9.74407 19.1979 10.0103 19.327 10.4087C19.4083 10.6618 19.4149 10.9742 19.3142 11.3462L18.9088 12.4996C18.8255 12.7364 18.7442 12.9066 18.5536 13.0575C18.4002 13.1795 18.2304 13.243 18.0079 13.2573C17.8956 14.4127 17.2792 14.9986 16.4917 15.7394C17.4068 17.432 19.3265 17.7536 20.957 18.0687C23.4524 18.5509 26.5688 20.907 26.5688 23.5782V24.6666C26.5688 24.8501 26.4188 25 26.2349 25H0.333874C0.149916 25 0 24.8501 0 24.6666V23.6819C0 20.4726 3.26775 18.5773 5.89017 18.2262C7.72045 17.9813 9.25599 17.7333 9.97039 15.6759C9.2438 15.0458 8.6447 14.4615 8.46687 13.2318C8.32331 13.2083 8.18512 13.1592 8.05884 13.087L8.01157 13.0571C7.73773 12.8838 7.54615 12.615 7.41657 12.3162C7.26614 11.9737 7.19961 11.5733 7.18436 11.272V10.7776C7.19603 10.3361 7.24024 9.98444 7.56441 9.63842L7.50448 9.60739C7.3734 7.96921 7.75699 5.12729 5.97807 4.58917ZM7.82865 10.4255C8.03798 9.82591 8.52478 10.0185 9.21889 10.272C8.94194 9.01494 9.26871 8.03324 10.2529 7.35284C12.3525 5.90012 13.3011 7.1435 15.5765 5.31124C16.8839 5.96924 18.0536 7.08253 17.4576 10.5596C18.0882 10.0815 18.9977 10.1262 18.7117 11.1851L18.3209 12.2923C18.2274 12.557 18.1649 12.6531 17.8301 12.6353C17.6822 12.6277 17.5333 12.5703 17.3849 12.4722C17.5221 14.1058 16.7289 14.6388 15.7366 15.5971C14.2076 17.0722 12.4195 17.0112 10.8327 15.5997C9.90335 14.773 9.07759 14.271 9.03649 12.5713C8.79561 12.6455 8.56796 12.6587 8.36879 12.5454C7.97244 12.3198 7.82761 11.6633 7.80628 11.2425C7.79767 11.0733 7.80478 10.5977 7.82865 10.4255ZM15.9464 16.2491C16.3103 16.8451 16.8357 17.245 17.422 17.4879C15.0745 19.2104 11.8332 19.0539 9.41857 17.5819C10.0197 17.2582 10.3744 16.8146 10.6091 16.2288C11.4724 16.9376 12.4008 17.3034 13.3332 17.3029C14.2397 17.3024 15.1299 16.9579 15.9464 16.2491Z" fill="#999999"/>
</g>
<defs>
<clipPath id="clip0_121_4012">
<rect width="26.5688" height="25" fill="white"/>
</clipPath>
</defs>
</svg>
