<svg width="22" height="22" viewBox="0 0 22 22" fill="none" xmlns="http://www.w3.org/2000/svg">
<g clip-path="url(#clip0_111_2373)">
<rect width="22" height="22" rx="4" fill="#BDF7FF"/>
<path d="M15.7775 12.2016L15.1184 11.105C14.9725 10.8658 14.8442 10.405 14.8442 10.125V9.03413C14.8442 6.91663 13.1234 5.1958 11.0117 5.1958C8.8942 5.20163 7.17337 6.91663 7.17337 9.03413V10.1191C7.17337 10.3991 7.04504 10.86 6.90504 11.0991L6.24587 12.1958C5.99504 12.6216 5.9367 13.1058 6.0942 13.5258C6.2517 13.9516 6.60754 14.29 7.0742 14.4416C7.7042 14.6516 8.34004 14.8033 8.98754 14.9141C9.0517 14.9258 9.11587 14.9316 9.18004 14.9433C9.2617 14.955 9.3492 14.9666 9.4367 14.9783C9.58837 15.0016 9.74004 15.0191 9.89754 15.0308C10.265 15.0658 10.6384 15.0833 11.0117 15.0833C11.3792 15.0833 11.7467 15.0658 12.1084 15.0308C12.2425 15.0191 12.3767 15.0075 12.505 14.99C12.61 14.9783 12.715 14.9666 12.82 14.9491C12.8842 14.9433 12.9484 14.9316 13.0125 14.92C13.6659 14.815 14.3134 14.6516 14.9434 14.4416C15.3925 14.29 15.7367 13.9516 15.9 13.52C16.0634 13.0825 16.0167 12.6041 15.7775 12.2016ZM11.4375 9.8333C11.4375 10.0783 11.2392 10.2766 10.9942 10.2766C10.7492 10.2766 10.5509 10.0783 10.5509 9.8333V8.02497C10.5509 7.77997 10.7492 7.58163 10.9942 7.58163C11.2392 7.58163 11.4375 7.77997 11.4375 8.02497V9.8333Z" fill="#2B2B2B"/>
<path d="M12.6513 15.6723C12.4063 16.349 11.7588 16.8332 11.0005 16.8332C10.5396 16.8332 10.0846 16.6465 9.7638 16.314C9.57714 16.139 9.43714 15.9057 9.35547 15.6665C9.4313 15.6782 9.50714 15.684 9.5888 15.6957C9.72297 15.7132 9.86297 15.7307 10.003 15.7423C10.3355 15.7715 10.6738 15.789 11.0121 15.789C11.3446 15.789 11.6771 15.7715 12.0038 15.7423C12.1263 15.7307 12.2488 15.7248 12.3655 15.7073C12.4588 15.6957 12.5521 15.684 12.6513 15.6723Z" fill="#2B2B2B"/>
</g>
<defs>
<clipPath id="clip0_111_2373">
<rect width="22" height="22" fill="white"/>
</clipPath>
</defs>
</svg>
