<svg width="30" height="30" viewBox="0 0 30 30" fill="none" xmlns="http://www.w3.org/2000/svg">
<path d="M11.4566 26.4529V25.4319H12.7912C13.2214 25.4319 13.5686 25.0847 13.5686 24.6545V23.6179C13.5686 23.1877 13.2214 22.8404 12.7912 22.8404H11.4566V21.2052C12.3999 21.0342 13.2939 20.6766 14.0921 20.1479C13.1514 19.7799 12.2858 19.2331 11.5343 18.5179C11.0834 18.6604 10.6014 18.7356 10.1012 18.7278C7.63418 18.6967 5.62321 16.6883 5.58952 14.2213C5.55583 11.8112 7.40095 9.81578 9.7514 9.60587C10.1401 8.72996 10.6921 7.92402 11.3892 7.22432C11.4255 7.18804 11.4618 7.15436 11.4955 7.12067C11.0601 7.03774 10.6118 6.99628 10.1583 6.99628C8.24576 6.99628 6.44729 7.74002 5.09455 9.09277C3.76772 10.4248 3.02657 12.1844 3.00065 14.058C2.97474 15.9757 3.72108 17.8312 5.06864 19.1943C6.11559 20.2516 7.43205 20.9435 8.86512 21.2052V22.8404H7.53052C7.10034 22.8404 6.75308 23.1877 6.75308 23.6179V24.6545C6.75308 25.0847 7.10034 25.4319 7.53052 25.4319H8.86512V26.4529C8.86512 26.8831 9.21238 27.2303 9.64256 27.2303H10.6791C11.1093 27.2303 11.4566 26.8831 11.4566 26.4529Z" fill="#999999"/>
<path d="M14.504 10.3445C14.1981 10.6503 13.9571 11.0027 13.7861 11.3836C14.377 12.1533 14.7294 13.1173 14.7294 14.1617C14.7294 14.566 14.675 14.9598 14.5765 15.333C15.2244 15.9446 16.0666 16.2815 16.9633 16.2815C16.9762 16.2815 16.9918 16.2815 17.0047 16.2815C17.2147 15.6051 17.3235 14.8925 17.3235 14.1617C17.3235 12.4669 16.7378 10.8602 15.6623 9.57739C15.2347 9.74843 14.8409 10.0076 14.504 10.3445Z" fill="#999999"/>
<path d="M21.6696 5.36108H22.574L20.8973 7.03775C19.7468 6.24995 18.3888 5.82495 16.9661 5.82495C15.3361 5.82495 13.789 6.37952 12.5451 7.40315C12.3689 7.54827 12.1952 7.70376 12.032 7.86961C11.5085 8.39309 11.0783 8.98653 10.7492 9.62921C10.2516 10.601 9.9873 11.6816 9.9873 12.8037C9.9873 14.667 10.7129 16.4188 12.032 17.7379C12.1667 17.8726 12.3041 17.9996 12.4466 18.1188C13.1852 18.7485 14.0378 19.2124 14.9525 19.4871C15.5978 19.6814 16.2742 19.7799 16.9661 19.7799C18.8293 19.7799 20.5812 19.0543 21.9002 17.7353C23.2167 16.4188 23.9449 14.6644 23.9449 12.8012C23.9449 11.3784 23.5199 10.0179 22.7321 8.86991L24.4087 7.19324V8.09766C24.4087 8.52784 24.756 8.8751 25.1862 8.8751H26.2227C26.6529 8.8751 27.0002 8.52784 27.0002 8.09766V4.06535V4.06276C27.0002 3.72587 26.8628 3.39157 26.6244 3.15057C26.386 2.91215 26.0517 2.76962 25.7148 2.76962C25.7122 2.76962 25.7096 2.76962 25.707 2.76962H21.6695C21.2393 2.76962 20.8921 3.11688 20.8921 3.54706V4.58364C20.8922 5.01383 21.2394 5.36108 21.6696 5.36108ZM20.0655 15.9031C19.2362 16.7324 18.1349 17.1885 16.9635 17.1885C16.8625 17.1885 16.7614 17.1859 16.6603 17.1782C15.7689 17.1185 14.9292 16.7894 14.2347 16.2349C14.1052 16.1312 13.9834 16.0224 13.8642 15.9032C12.4518 14.4908 12.2056 12.3503 13.1256 10.684C13.3199 10.3315 13.5661 9.99982 13.8642 9.7018C14.201 9.36491 14.5846 9.08762 14.9992 8.88031C15.6004 8.57711 16.2716 8.41643 16.9635 8.41643C18.1349 8.41643 19.2362 8.87253 20.0655 9.7018C21.7759 11.4121 21.7759 14.1953 20.0655 15.9031Z" fill="#999999"/>
</svg>
