<svg width="31" height="30" viewBox="0 0 31 30" fill="none" xmlns="http://www.w3.org/2000/svg">
<path d="M18.9249 16.428C18.8766 16.2495 18.8643 16.0631 18.8885 15.8797C18.9128 15.6963 18.9732 15.5196 19.0663 15.3598L19.1092 15.2848C19.2098 15.1109 19.3753 14.9839 19.5693 14.9319C19.7634 14.8799 19.9702 14.9071 20.1443 15.0074L21.2703 15.6574C21.4441 15.7582 21.5709 15.9238 21.6228 16.1179C21.6746 16.3121 21.6474 16.5189 21.547 16.6929L21.5041 16.7679C21.3648 17.009 21.1572 17.2034 20.9074 17.3265C20.6577 17.4496 20.377 17.4959 20.101 17.4595C19.8249 17.4232 19.5658 17.3058 19.3565 17.1222C19.1472 16.9385 18.997 16.697 18.9249 16.428ZM12.9644 13.4921C12.8796 13.2364 12.7454 12.9999 12.5692 12.7961C12.3931 12.5924 12.1786 12.4253 11.9379 12.3044C11.4518 12.0603 10.8886 12.0193 10.3722 12.1905C10.1166 12.2752 9.88011 12.4095 9.67633 12.5856C9.47255 12.7617 9.30546 12.9763 9.1846 13.217C8.9405 13.7031 8.89951 14.2662 9.07065 14.7826L9.26485 15.3659C9.53853 16.1962 9.89607 16.9965 10.332 17.7544L14.1017 16.0637C13.7075 15.443 13.3905 14.7765 13.1576 14.0791L12.9644 13.4921ZM12.8022 6.27894L12.4426 5.65654C12.3736 5.53763 12.2747 5.43884 12.1557 5.37C12.0367 5.30116 11.9018 5.26467 11.7643 5.26415H11.7629C11.6756 5.26121 11.5893 5.28315 11.514 5.32743C11.4388 5.3717 11.3776 5.43648 11.3378 5.51419C11.2545 5.65686 11.2171 5.82163 11.2304 5.98627C11.2437 6.15091 11.3072 6.30751 11.4123 6.43495C11.6245 6.59906 11.7892 6.81659 11.8898 7.06528C11.9903 7.31398 12.023 7.58491 11.9845 7.85038L11.984 8.05565C11.984 8.07683 11.9821 8.09797 11.9783 8.11881C11.7586 9.2958 11.1126 10.3504 10.1638 11.0809C10.7539 10.7757 11.4084 10.6164 12.0726 10.6162H13.1125L12.9267 9.43054C12.9188 9.38003 12.9217 9.32841 12.9352 9.27909C12.9487 9.22978 12.9724 9.18387 13.0049 9.1444C13.0374 9.10494 13.0779 9.07279 13.1237 9.05009C13.1696 9.02739 13.2197 9.01465 13.2708 9.0127C14.9435 8.95001 16.0474 8.90878 16.3118 7.03731C16.2957 6.93072 16.2669 6.82644 16.226 6.7267C16.1441 6.52953 16.0986 6.31912 16.0917 6.10571L16.1063 5.7555C16.1347 5.31544 16.1322 4.87393 16.0988 4.43422C14.2398 6.02187 13.2917 6.41732 13.2515 6.43352C13.1705 6.46646 13.0804 6.46894 12.9978 6.44052C12.9152 6.41209 12.8457 6.35469 12.8022 6.27894ZM21.0026 18.066C20.7714 18.1501 20.5274 18.1937 20.2814 18.1951C19.9649 18.1968 19.652 18.1273 19.3659 17.9919C19.0799 17.8564 18.8279 17.6584 18.6286 17.4124C18.4294 17.1665 18.2879 16.8789 18.2148 16.5709C18.1416 16.263 18.1386 15.9425 18.206 15.6332C18.0171 15.5449 17.8257 15.4622 17.6316 15.3925C17.4586 15.3279 17.2997 15.2685 15.8815 12.2621C15.7497 11.9868 15.543 11.7543 15.285 11.5912C15.0271 11.4281 14.7283 11.3411 14.4232 11.3402H12.0726C11.8657 11.3411 11.6592 11.3605 11.4558 11.3983C11.9576 11.4786 12.4277 11.6952 12.8149 12.0244C13.2021 12.3536 13.4915 12.7828 13.6516 13.2651L13.8448 13.8512C14.1018 14.6202 14.4696 15.3476 14.9365 16.0104C14.9672 16.0541 14.988 16.104 14.9972 16.1566C15.0064 16.2092 15.0038 16.2632 14.9896 16.3147C14.9755 16.3662 14.9501 16.414 14.9153 16.4545C14.8805 16.495 14.8372 16.5274 14.7885 16.5492L14.1779 16.823C15.1625 18.3292 16.689 19.3987 18.4408 19.8099C18.5956 19.8345 18.7528 19.8401 18.9089 19.8264C19.2216 19.8169 19.5331 19.8702 19.8249 19.983C20.1168 20.0958 20.383 20.266 20.6081 20.4834L20.7405 20.6121C20.9325 20.7995 21.0722 21.0338 21.1458 21.2918C21.2193 21.5499 21.224 21.8227 21.1595 22.0831L21.0332 22.5875C20.9597 22.8862 20.7975 23.1558 20.5679 23.3606C20.3383 23.5655 20.0521 23.696 19.7469 23.7352L19.441 23.7752C18.7327 23.8695 18.0148 23.6949 17.4289 23.286C16.0556 22.9399 14.7657 22.3216 13.6359 21.4676C12.5061 20.6137 11.5592 19.5415 10.8516 18.3147L10.3334 18.5472C10.2529 18.5831 10.1622 18.5886 10.078 18.5625C9.99385 18.5363 9.9221 18.4805 9.87616 18.4053C9.45104 17.7055 9.09025 16.9686 8.79821 16.2037L9.08761 18.3591C9.31266 20.0417 9.11137 21.7538 8.50221 23.3383C7.90341 24.8994 7.835 26.6142 8.30754 28.2181L8.50268 28.8765C8.50645 28.8886 8.51396 28.8992 8.52412 28.9067C8.53429 28.9143 8.54659 28.9184 8.55925 28.9185H18.6841C18.6997 28.9185 18.7147 28.9123 18.7257 28.9012C18.7368 28.8902 18.743 28.8752 18.743 28.8596V28.3293C18.7416 28.1131 18.7912 27.8997 18.8878 27.7063C18.9845 27.5129 19.1254 27.3451 19.2992 27.2165C20.1634 26.5894 20.8673 25.7671 21.3536 24.8165C21.8398 23.8659 22.0947 22.8139 22.0975 21.7461C22.0989 20.4389 21.7183 19.1598 21.0026 18.066ZM11.26 8.02171L11.2605 7.8188C11.2605 7.79762 11.2624 7.77648 11.2661 7.75564C11.3232 7.43678 11.2426 7.30245 10.8909 6.9374C10.6807 6.70707 10.5475 6.41695 10.5098 6.10739C10.4721 5.79782 10.5319 5.48421 10.6807 5.21018C10.7788 5.00719 10.9327 4.83636 11.1243 4.7177C11.316 4.59903 11.5375 4.53745 11.7629 4.54017H11.7657C12.03 4.54112 12.2894 4.61126 12.5181 4.74361C12.7469 4.87596 12.937 5.06591 13.0695 5.29455L13.2576 5.62024C14.1274 5.1043 14.9446 4.50449 15.6977 3.8294L15.964 3.53128C15.983 3.51048 15.9954 3.48449 15.9996 3.45662C16.0038 3.42876 15.9996 3.40027 15.9875 3.37479L15.8367 3.04982C15.4596 2.42845 14.9162 1.92498 14.2679 1.59636C13.6196 1.26774 12.8923 1.12709 12.1682 1.1903C11.4441 1.25351 10.7522 1.51806 10.1706 1.95404C9.58906 2.39003 9.1411 2.98004 8.8774 3.65735C8.74421 4.14072 8.66315 4.63697 8.6356 5.1376L8.28115 11.6178L9.44112 10.7371C10.383 10.1084 11.0371 9.13192 11.26 8.02171ZM17.6815 22.6044C17.7245 22.6159 17.765 22.6354 17.8008 22.6619C18.2456 22.9886 18.7996 23.1305 19.3468 23.0579L19.6522 23.0178C19.8132 22.997 19.9642 22.9279 20.0854 22.8198C20.2065 22.7116 20.2921 22.5693 20.3309 22.4117L20.4572 21.9073C20.4912 21.77 20.4887 21.6261 20.4499 21.49C20.4112 21.3539 20.3375 21.2303 20.2362 21.1315L20.1033 21.0024C19.9493 20.8514 19.7661 20.7335 19.5649 20.6557C19.3638 20.578 19.1489 20.5422 18.9334 20.5503C18.7052 20.57 18.4754 20.5559 18.2514 20.5084C16.2872 20.0467 14.5837 18.8306 13.509 17.1229L11.518 18.0159C12.1874 19.1531 13.0776 20.1449 14.1361 20.9329C15.1946 21.7209 16.4001 22.2892 17.6815 22.6044Z" fill="#999999"/>
</svg>
