<svg width="22" height="22" viewBox="0 0 22 22" fill="none" xmlns="http://www.w3.org/2000/svg">
<g clip-path="url(#clip0_111_2471)">
<rect width="22" height="22" rx="4" fill="#BDEFFF"/>
<path d="M16.1977 10.4865V7.92569C16.1977 7.44736 15.8361 6.90486 15.3869 6.72402L12.1377 5.39402C11.4086 5.09652 10.5861 5.09652 9.8569 5.39402L6.60773 6.72402C6.1644 6.90486 5.80273 7.44736 5.80273 7.92569V10.4865C5.80273 13.339 7.87357 16.0107 10.7027 16.7924C10.8952 16.8449 11.1052 16.8449 11.2977 16.7924C14.1269 16.0107 16.1977 13.339 16.1977 10.4865ZM11.4377 11.5074V13.0415C11.4377 13.2807 11.2394 13.479 11.0002 13.479C10.7611 13.479 10.5627 13.2807 10.5627 13.0415V11.5074C9.97357 11.3207 9.5419 10.7724 9.5419 10.1249C9.5419 9.31986 10.1952 8.66652 11.0002 8.66652C11.8052 8.66652 12.4586 9.31986 12.4586 10.1249C12.4586 10.7782 12.0269 11.3207 11.4377 11.5074Z" fill="#2B2B2B"/>
</g>
<defs>
<clipPath id="clip0_111_2471">
<rect width="22" height="22" fill="white"/>
</clipPath>
</defs>
</svg>
