<svg width="22" height="22" viewBox="0 0 22 22" fill="none" xmlns="http://www.w3.org/2000/svg">
<g clip-path="url(#clip0_111_2372)">
<rect width="22" height="22" rx="4" fill="#FFBDBD"/>
<path d="M11.0003 5.16675C9.47199 5.16675 8.22949 6.40925 8.22949 7.93758C8.22949 9.43675 9.40199 10.6501 10.9303 10.7026C10.977 10.6967 11.0237 10.6967 11.0587 10.7026C11.0703 10.7026 11.0762 10.7026 11.0878 10.7026C11.0937 10.7026 11.0937 10.7026 11.0995 10.7026C12.5928 10.6501 13.7653 9.43675 13.7712 7.93758C13.7712 6.40925 12.5287 5.16675 11.0003 5.16675Z" fill="#2B2B2B"/>
<path d="M13.9636 12.2542C12.3361 11.1692 9.68189 11.1692 8.04272 12.2542C7.30189 12.75 6.89355 13.4208 6.89355 14.1383C6.89355 14.8558 7.30189 15.5208 8.03689 16.0108C8.85355 16.5592 9.92689 16.8333 11.0002 16.8333C12.0736 16.8333 13.1469 16.5592 13.9636 16.0108C14.6986 15.515 15.1069 14.85 15.1069 14.1267C15.1011 13.4092 14.6986 12.7442 13.9636 12.2542Z" fill="#2B2B2B"/>
</g>
<defs>
<clipPath id="clip0_111_2372">
<rect width="22" height="22" fill="white"/>
</clipPath>
</defs>
</svg>
