<svg width="22" height="22" viewBox="0 0 22 22" fill="none" xmlns="http://www.w3.org/2000/svg">
<g clip-path="url(#clip0_111_2478)">
<rect width="22" height="22" rx="4" fill="#FFC123"/>
<path d="M7.34878 13.3332C7.41295 13.0473 7.29628 12.639 7.09211 12.4348L5.67461 11.0173C5.23128 10.574 5.05628 10.1015 5.18461 9.69317C5.31878 9.28484 5.73295 9.00484 6.35128 8.89984L8.17128 8.5965C8.43378 8.54984 8.75461 8.3165 8.87711 8.07734L9.88045 6.06484C10.1721 5.48734 10.5688 5.1665 11.0004 5.1665C11.4321 5.1665 11.8288 5.48734 12.1204 6.06484L13.1238 8.07734C13.1996 8.229 13.3571 8.37484 13.5263 8.474L7.24378 14.7565C7.16211 14.8382 7.02211 14.7623 7.04545 14.6457L7.34878 13.3332Z" fill="#2B2B2B"/>
<path d="M14.9078 12.4351C14.6978 12.6451 14.5811 13.0476 14.6511 13.3334L15.0536 15.0893C15.2228 15.8184 15.1178 16.3668 14.7561 16.6293C14.6103 16.7343 14.4353 16.7868 14.2311 16.7868C13.9336 16.7868 13.5836 16.6759 13.1986 16.4484L11.4895 15.4334C11.2211 15.2759 10.7778 15.2759 10.5095 15.4334L8.80031 16.4484C8.15281 16.8276 7.59865 16.8918 7.24281 16.6293C7.10865 16.5301 7.00948 16.3959 6.94531 16.2209L14.0386 9.1276C14.307 8.85927 14.6861 8.73677 15.0536 8.80094L15.6428 8.9001C16.2611 9.0051 16.6753 9.2851 16.8095 9.69344C16.9378 10.1018 16.7628 10.5743 16.3195 11.0176L14.9078 12.4351Z" fill="#2B2B2B"/>
</g>
<defs>
<clipPath id="clip0_111_2478">
<rect width="22" height="22" fill="white"/>
</clipPath>
</defs>
</svg>
