<svg width="17" height="17" viewBox="0 0 17 17" fill="none" xmlns="http://www.w3.org/2000/svg">
<path d="M11.4353 1.40497H5.54835C2.99123 1.40497 1.4668 2.9294 1.4668 5.48652V11.3665C1.4668 13.9306 2.99123 15.455 5.54835 15.455H11.4283C13.9854 15.455 15.5099 13.9306 15.5099 11.3735V5.48652C15.5169 2.9294 13.9924 1.40497 11.4353 1.40497ZM5.42189 12.7504C5.42189 13.0384 5.18304 13.2773 4.89502 13.2773C4.60699 13.2773 4.36814 13.0384 4.36814 12.7504V11.2962C4.36814 11.0082 4.60699 10.7693 4.89502 10.7693C5.18304 10.7693 5.42189 11.0082 5.42189 11.2962V12.7504ZM9.01871 12.7504C9.01871 13.0384 8.77986 13.2773 8.49184 13.2773C8.20381 13.2773 7.96496 13.0384 7.96496 12.7504V9.83502C7.96496 9.54699 8.20381 9.30814 8.49184 9.30814C8.77986 9.30814 9.01871 9.54699 9.01871 9.83502V12.7504ZM12.6155 12.7504C12.6155 13.0384 12.3767 13.2773 12.0887 13.2773C11.8006 13.2773 11.5618 13.0384 11.5618 12.7504V8.38083C11.5618 8.09281 11.8006 7.85395 12.0887 7.85395C12.3767 7.85395 12.6155 8.09281 12.6155 8.38083V12.7504ZM12.6155 6.16092C12.6155 6.44895 12.3767 6.6878 12.0887 6.6878C11.8006 6.6878 11.5618 6.44895 11.5618 6.16092V5.47949C9.77039 7.32005 7.52941 8.61968 5.02147 9.24491C4.97932 9.25896 4.93717 9.25896 4.89502 9.25896C4.65617 9.25896 4.44541 9.09739 4.38219 8.85854C4.31194 8.57753 4.48054 8.28951 4.76857 8.21926C7.136 7.62915 9.24352 6.38572 10.9155 4.62946H10.0373C9.74932 4.62946 9.51047 4.39061 9.51047 4.10258C9.51047 3.81456 9.74932 3.57571 10.0373 3.57571H12.0957C12.1238 3.57571 12.1449 3.58976 12.173 3.58976C12.2081 3.59678 12.2432 3.59678 12.2783 3.61083C12.3135 3.62488 12.3416 3.64596 12.3767 3.66703C12.3978 3.68108 12.4188 3.68811 12.4399 3.70216C12.4469 3.70918 12.4469 3.71621 12.454 3.71621C12.4821 3.74431 12.5031 3.77241 12.5242 3.80051C12.5453 3.82861 12.5664 3.84968 12.5734 3.87778C12.5874 3.90588 12.5874 3.93398 12.5945 3.96911C12.6015 4.00423 12.6155 4.03936 12.6155 4.08151C12.6155 4.08853 12.6226 4.09556 12.6226 4.10258V6.16092H12.6155Z" fill="white"/>
</svg>
