<svg width="14" height="14" viewBox="0 0 14 14" fill="none" xmlns="http://www.w3.org/2000/svg">
<path d="M9.41531 1.72669L4.14781 3.47669C0.606979 4.66086 0.606979 6.59169 4.14781 7.77002L5.71115 8.28919L6.23031 9.85252C7.40865 13.3934 9.34531 13.3934 10.5236 9.85252L12.2795 4.59086C13.0611 2.22836 11.7778 0.939192 9.41531 1.72669ZM9.60198 4.86503L7.38531 7.09336C7.29781 7.18086 7.18698 7.22169 7.07615 7.22169C6.96531 7.22169 6.85448 7.18086 6.76698 7.09336C6.59781 6.92419 6.59781 6.64419 6.76698 6.47503L8.98365 4.24669C9.15281 4.07753 9.43281 4.07753 9.60198 4.24669C9.77114 4.41586 9.77114 4.69586 9.60198 4.86503Z" fill="#1F1E1E"/>
</svg>
