<svg width="15" height="15" viewBox="0 0 15 15" fill="none" xmlns="http://www.w3.org/2000/svg">
<path d="M8.21811 0.685914C8.41637 0.685914 8.59374 0.809329 8.6605 0.994113L9.13661 2.31391C9.30723 2.35639 9.45357 2.39888 9.57766 2.44339C9.71321 2.49195 9.88787 2.56546 10.1037 2.66594L11.2124 2.07922C11.3029 2.03127 11.4065 2.01396 11.5076 2.02989C11.6088 2.04582 11.7021 2.09413 11.7734 2.16756L12.7486 3.17578C12.8781 3.30999 12.9145 3.50624 12.8417 3.67753L12.3217 4.89617C12.408 5.05465 12.4768 5.1902 12.5294 5.3035C12.5861 5.42692 12.6562 5.59686 12.7398 5.81604L13.9517 6.33533C14.1338 6.41288 14.2464 6.59497 14.2343 6.78987L14.1452 8.18924C14.1392 8.28015 14.1065 8.36728 14.0514 8.43981C13.9962 8.51234 13.921 8.56708 13.835 8.59725L12.6872 9.00526C12.6542 9.16374 12.6198 9.2993 12.5834 9.41394C12.5246 9.591 12.4576 9.76519 12.3824 9.93593L12.959 11.2105C12.9997 11.3001 13.0107 11.4003 12.9903 11.4966C12.9699 11.5928 12.9192 11.68 12.8457 11.7453L11.7492 12.7246C11.6769 12.7888 11.5868 12.8294 11.4909 12.841C11.395 12.8525 11.2978 12.8345 11.2124 12.7893L10.0821 12.1904C9.90526 12.2841 9.72283 12.3667 9.53584 12.4379L9.0422 12.6227L8.60385 13.8366C8.57137 13.9255 8.51277 14.0025 8.43575 14.0575C8.35873 14.1125 8.26687 14.143 8.17225 14.1448L6.89092 14.1738C6.79379 14.1764 6.69825 14.1488 6.61746 14.0948C6.53666 14.0408 6.47458 13.9631 6.43976 13.8724L5.92319 12.5054C5.74694 12.4451 5.57243 12.3799 5.39987 12.3098C5.25873 12.2487 5.11973 12.1828 4.9831 12.1122L3.70178 12.6598C3.61735 12.6958 3.52427 12.7065 3.43388 12.6906C3.34348 12.6747 3.25966 12.6328 3.19262 12.5701L2.24444 11.6806C2.17385 11.6146 2.12577 11.5282 2.10702 11.4334C2.08826 11.3387 2.09977 11.2404 2.13991 11.1525L2.69088 9.95211C2.61761 9.80993 2.54967 9.66506 2.48722 9.5178C2.41432 9.33756 2.34685 9.15516 2.28491 8.97087L1.07776 8.60332C0.979643 8.57366 0.89406 8.51243 0.834306 8.42914C0.774553 8.34585 0.743974 8.24516 0.747318 8.14271L0.794525 6.84719C0.797885 6.76267 0.82429 6.68067 0.870884 6.61006C0.917477 6.53945 0.982487 6.48293 1.05888 6.4466L2.32537 5.8383C2.38404 5.62317 2.43529 5.45592 2.48048 5.33385C2.5441 5.17081 2.61475 5.01061 2.69223 4.85368L2.14329 3.69372C2.10163 3.60563 2.08898 3.5066 2.10715 3.41087C2.12533 3.31514 2.1734 3.22763 2.24444 3.16095L3.19127 2.2667C3.25765 2.2041 3.3407 2.16201 3.43043 2.1455C3.52016 2.12898 3.61275 2.13876 3.69706 2.17363L4.97703 2.70236C5.11865 2.60794 5.24679 2.53174 5.36278 2.47037C5.50103 2.39686 5.68581 2.31998 5.91847 2.23702L6.36356 0.995462C6.39646 0.9046 6.45661 0.826109 6.53579 0.770707C6.61497 0.715305 6.70932 0.685693 6.80595 0.685914H8.21811ZM7.50731 5.4195C6.38312 5.4195 5.47203 6.31982 5.47203 7.43122C5.47203 8.54262 6.38312 9.44362 7.50731 9.44362C8.63083 9.44362 9.54191 8.54262 9.54191 7.43122C9.54191 6.31982 8.6315 5.4195 7.50731 5.4195Z" fill="white"/>
</svg>
