<svg width="22" height="22" viewBox="0 0 22 22" fill="none" xmlns="http://www.w3.org/2000/svg">
<g clip-path="url(#clip0_120_2927)">
<rect width="22" height="22" rx="4" fill="#9DEA96"/>
<path d="M13.4143 5.72694L8.14684 7.47694C4.606 8.6611 4.606 10.5919 8.14684 11.7703L9.71017 12.2894L10.2293 13.8528C11.4077 17.3936 13.3443 17.3936 14.5227 13.8528L16.2785 8.5911C17.0602 6.2286 15.7768 4.93944 13.4143 5.72694ZM13.601 8.86527L11.3843 11.0936C11.2968 11.1811 11.186 11.2219 11.0752 11.2219C10.9643 11.2219 10.8535 11.1811 10.766 11.0936C10.5968 10.9244 10.5968 10.6444 10.766 10.4753L12.9827 8.24694C13.1518 8.07777 13.4318 8.07777 13.601 8.24694C13.7702 8.4161 13.7702 8.6961 13.601 8.86527Z" fill="#2B2B2B"/>
</g>
<defs>
<clipPath id="clip0_120_2927">
<rect width="22" height="22" fill="white"/>
</clipPath>
</defs>
</svg>
