<svg width="25" height="25" viewBox="0 0 25 25" fill="none" xmlns="http://www.w3.org/2000/svg">
<g clip-path="url(#clip0_121_4077)">
<path d="M22.1571 11.1762C21.8576 9.56166 20.4514 8.33336 18.75 8.33336C18.2161 8.33336 17.7127 8.46357 17.2613 8.68058C16.5061 7.63458 15.2821 6.94447 13.8889 6.94447C11.5885 6.94447 9.72222 8.81079 9.72222 11.1111C9.72222 11.1328 9.7309 11.1589 9.7309 11.1806C8.14236 11.5018 6.94444 12.8993 6.94444 14.5834C6.94444 16.5018 8.49826 18.0556 10.4167 18.0556H21.5278C23.4462 18.0556 25 16.5018 25 14.5834C25 12.882 23.776 11.4714 22.1571 11.1762ZM5.38628 12.6693C3.76302 11.046 3.76302 8.4028 5.38628 6.7752C6.88802 5.27346 9.25347 5.17798 10.8854 6.45402C11.7535 5.89412 12.7778 5.55558 13.8889 5.55558C13.9193 5.55558 13.9453 5.56426 13.9757 5.56426L14.362 4.40541C14.5095 3.9627 14.0885 3.54603 13.6458 3.6936L10.3776 4.78301L8.83681 1.70142C8.62847 1.28475 8.03385 1.28475 7.82552 1.70142L6.28472 4.78301L3.01649 3.6936C2.57378 3.54603 2.15712 3.96704 2.30469 4.40975L3.3941 7.67798L0.3125 9.21878C-0.104167 9.42711 -0.104167 10.0217 0.3125 10.2301L3.3941 11.7709L2.30469 15.0391C2.15712 15.4818 2.57812 15.8985 3.02083 15.7552L5.59028 14.9002C5.5816 14.796 5.5599 14.6962 5.5599 14.5877C5.5599 14.0452 5.65972 13.5243 5.82899 13.0295C5.67274 12.9124 5.52083 12.8038 5.38628 12.6693ZM8.4158 10.1519C8.60243 9.08857 9.10156 8.13805 9.80035 7.37416C9.375 7.10506 8.87153 6.94447 8.33333 6.94447C6.80122 6.94447 5.55556 8.19013 5.55556 9.72225C5.55556 10.5339 5.91146 11.2587 6.47135 11.7665C6.96181 11.0764 7.62587 10.5122 8.4158 10.1519ZM22.7648 19.5356C22.4349 19.349 22.0095 19.4575 21.8186 19.796L20.23 22.5738C20.0391 22.908 20.1562 23.329 20.4905 23.52C20.599 23.5808 20.7161 23.6111 20.8333 23.6111C21.072 23.6111 21.3064 23.4853 21.4366 23.2596L23.0252 20.4818C23.2118 20.1476 23.099 19.7266 22.7648 19.5356ZM18.5981 19.5356C18.2682 19.349 17.8429 19.4575 17.6519 19.796L16.0634 22.5738C15.8724 22.908 15.9896 23.329 16.3238 23.52C16.4323 23.5808 16.5495 23.6111 16.6667 23.6111C16.9054 23.6111 17.1398 23.4853 17.27 23.2596L18.8585 20.4818C19.0451 20.1476 18.9323 19.7266 18.5981 19.5356ZM14.4314 19.5356C14.1016 19.349 13.6762 19.4575 13.4852 19.796L11.8967 22.5738C11.7057 22.908 11.8229 23.329 12.1571 23.52C12.2656 23.5808 12.3828 23.6111 12.5 23.6111C12.7387 23.6111 12.9731 23.4853 13.1033 23.2596L14.6918 20.4818C14.8785 20.1476 14.7656 19.7266 14.4314 19.5356ZM10.2648 19.5356C9.9349 19.349 9.50955 19.4575 9.31858 19.796L7.73003 22.5738C7.53906 22.908 7.65625 23.329 7.99045 23.52C8.09896 23.5808 8.21615 23.6111 8.33333 23.6111C8.57205 23.6111 8.80642 23.4853 8.93663 23.2596L10.5252 20.4818C10.7118 20.1476 10.599 19.7266 10.2648 19.5356Z" fill="#999999"/>
</g>
<defs>
<clipPath id="clip0_121_4077">
<rect width="25" height="25" fill="white"/>
</clipPath>
</defs>
</svg>
