<svg width="22" height="22" viewBox="0 0 22 22" fill="none" xmlns="http://www.w3.org/2000/svg">
<g clip-path="url(#clip0_364_4515)">
<rect width="22" height="22" rx="4" fill="#C2D7FF"/>
<path d="M12.0191 14.8103C12.0191 14.0648 12.3093 13.3638 12.8365 12.8365C13.3638 12.3093 14.0646 12.0191 14.8103 12.0191C15.4224 12.0191 16.0044 12.215 16.485 12.5768C16.5117 12.1875 16.5282 11.752 16.5288 11.2645C16.5276 10.0384 16.4246 9.14059 16.3149 8.4808C16.1228 7.39369 15.1354 6.40627 14.0483 6.2142C13.3885 6.1042 12.4906 6.00129 11.2643 6C10.0382 6.00129 9.14016 6.1042 8.48037 6.21398C7.39348 6.40605 6.40605 7.39348 6.21398 8.48059C6.1042 9.14037 6.0015 10.0382 6 11.2643C6.0015 12.4904 6.1042 13.3885 6.21398 14.0483C6.40605 15.1354 7.39348 16.1228 8.48059 16.3149C9.14037 16.4246 10.0382 16.5273 11.2645 16.5288C11.752 16.5282 12.1875 16.5117 12.5768 16.485C12.215 16.0044 12.0191 15.4226 12.0191 14.8103ZM8.6632 8.54418H13.8656C14.2021 8.54418 14.4749 8.81703 14.4749 9.15348C14.4749 9.48992 14.2021 9.76277 13.8656 9.76277H8.6632C8.32676 9.76277 8.05391 9.48992 8.05391 9.15348C8.05391 8.81703 8.32676 8.54418 8.6632 8.54418ZM8.6632 12.3072C8.32676 12.3072 8.05391 12.0343 8.05391 11.6979C8.05391 11.3614 8.32676 11.0886 8.6632 11.0886H11.7172C12.0537 11.0886 12.3265 11.3614 12.3265 11.6979C12.3265 12.0343 12.0537 12.3072 11.7172 12.3072H8.6632Z" fill="#2A2A2A"/>
<path d="M14.8108 12.6206C13.6014 12.6206 12.6211 13.6009 12.6211 14.8103C12.6211 16.0196 13.6014 17 14.8108 17C16.0201 17 17.0005 16.0196 17.0005 14.8103C17.0005 13.6009 16.0201 12.6206 14.8108 12.6206ZM15.219 15.8968C15.219 16.1221 15.0362 16.305 14.8108 16.305C14.5854 16.305 14.4026 16.1221 14.4026 15.8968V14.8197C14.4026 14.5944 14.5854 14.4115 14.8108 14.4115C15.0362 14.4115 15.219 14.5944 15.219 14.8197V15.8968ZM15.2022 13.946C15.1872 14.0311 15.1098 14.1084 15.0248 14.1234C14.9732 14.132 14.9027 14.14 14.8067 14.1402C14.7107 14.1402 14.6404 14.132 14.5886 14.1234C14.5036 14.1084 14.4262 14.0311 14.4112 13.946C14.4026 13.8944 14.3946 13.8239 14.3944 13.7279C14.3944 13.6319 14.4026 13.5616 14.4112 13.5098C14.4262 13.4248 14.5036 13.3474 14.5886 13.3324C14.6402 13.3238 14.7107 13.3158 14.8067 13.3156C14.9027 13.3156 14.973 13.3238 15.0248 13.3324C15.1098 13.3474 15.1872 13.4248 15.2022 13.5098C15.2108 13.5614 15.2188 13.6319 15.219 13.7279C15.219 13.8239 15.2108 13.8942 15.2022 13.946Z" fill="#2A2A2A"/>
</g>
<defs>
<clipPath id="clip0_364_4515">
<rect width="22" height="22" fill="white"/>
</clipPath>
</defs>
</svg>
