<svg width="22" height="22" viewBox="0 0 22 22" fill="none" xmlns="http://www.w3.org/2000/svg">
<g clip-path="url(#clip0_111_2438)">
<rect width="22" height="22" rx="4" fill="#CABDFF"/>
<path d="M11.4468 4.44681C11.4468 4.20004 11.2468 4 11 4C10.7532 4 10.5532 4.20004 10.5532 4.44681V5.6383C10.5532 5.88506 10.7532 6.08511 11 6.08511C11.2468 6.08511 11.4468 5.88506 11.4468 5.6383V4.44681Z" fill="#303030"/>
<path d="M6.68214 6.05025C6.50765 5.87576 6.22474 5.87576 6.05025 6.05025C5.87576 6.22474 5.87576 6.50765 6.05025 6.68214L6.89276 7.52465C7.06725 7.69913 7.35016 7.69913 7.52465 7.52465C7.69914 7.35016 7.69914 7.06725 7.52465 6.89276L6.68214 6.05025Z" fill="#303030"/>
<path d="M15.9497 6.68214C16.1242 6.50765 16.1242 6.22474 15.9497 6.05025C15.7753 5.87576 15.4924 5.87576 15.3179 6.05025L14.4754 6.89276C14.3009 7.06725 14.3009 7.35016 14.4754 7.52465C14.6498 7.69913 14.9327 7.69914 15.1072 7.52465L15.9497 6.68214Z" fill="#303030"/>
<path fill-rule="evenodd" clip-rule="evenodd" d="M11 6.97872C8.77911 6.97872 6.97872 8.77911 6.97872 11C6.97872 13.2209 8.77911 15.0213 11 15.0213C13.2209 15.0213 15.0213 13.2209 15.0213 11C15.0213 8.77911 13.2209 6.97872 11 6.97872Z" fill="#303030"/>
<path d="M4.44681 10.5532C4.20004 10.5532 4 10.7532 4 11C4 11.2468 4.20004 11.4468 4.44681 11.4468H5.6383C5.88506 11.4468 6.08511 11.2468 6.08511 11C6.08511 10.7532 5.88506 10.5532 5.6383 10.5532H4.44681Z" fill="#303030"/>
<path d="M16.3617 10.5532C16.1149 10.5532 15.9149 10.7532 15.9149 11C15.9149 11.2468 16.1149 11.4468 16.3617 11.4468H17.5532C17.8 11.4468 18 11.2468 18 11C18 10.7532 17.8 10.5532 17.5532 10.5532H16.3617Z" fill="#303030"/>
<path d="M7.52465 15.1072C7.69913 14.9327 7.69913 14.6498 7.52465 14.4754C7.35016 14.3009 7.06725 14.3009 6.89276 14.4754L6.05025 15.3179C5.87576 15.4924 5.87576 15.7753 6.05025 15.9497C6.22474 16.1242 6.50765 16.1242 6.68214 15.9497L7.52465 15.1072Z" fill="#303030"/>
<path d="M15.1072 14.4754C14.9327 14.3009 14.6498 14.3009 14.4754 14.4754C14.3009 14.6498 14.3009 14.9327 14.4754 15.1072L15.3179 15.9497C15.4924 16.1242 15.7753 16.1242 15.9497 15.9497C16.1242 15.7753 16.1242 15.4924 15.9497 15.3179L15.1072 14.4754Z" fill="#303030"/>
<path d="M11.4468 16.3617C11.4468 16.1149 11.2468 15.9149 11 15.9149C10.7532 15.9149 10.5532 16.1149 10.5532 16.3617V17.5532C10.5532 17.8 10.7532 18 11 18C11.2468 18 11.4468 17.8 11.4468 17.5532V16.3617Z" fill="#303030"/>
</g>
<defs>
<clipPath id="clip0_111_2438">
<rect width="22" height="22" fill="white"/>
</clipPath>
</defs>
</svg>
