<svg width="12" height="17" viewBox="0 0 12 17" fill="none" xmlns="http://www.w3.org/2000/svg">
<path d="M6.35625 0.348441C6.31224 0.297048 6.25764 0.255791 6.19617 0.227504C6.13471 0.199217 6.06785 0.18457 6.0002 0.18457C5.93254 0.18457 5.86568 0.199217 5.80422 0.227504C5.74276 0.255791 5.68815 0.297048 5.64414 0.348441C4.40742 1.79492 0.375 6.79571 0.375 10.5C0.375 13.952 2.54844 16.125 6 16.125C9.45156 16.125 11.625 13.952 11.625 10.5C11.625 6.79571 7.59258 1.79492 6.35625 0.348441ZM6.625 14.0938C6.54992 14.0939 6.4759 14.076 6.40917 14.0416C6.34244 14.0072 6.28495 13.9573 6.24154 13.8961C6.19812 13.8348 6.17006 13.764 6.1597 13.6897C6.14935 13.6153 6.15701 13.5395 6.18203 13.4688C6.214 13.3764 6.27428 13.2965 6.3543 13.2404C6.43433 13.1843 6.53001 13.1548 6.62773 13.1563C7.2482 13.1549 7.84286 12.9078 8.2816 12.4691C8.72034 12.0304 8.96741 11.4357 8.96875 10.8152C8.96732 10.7175 8.99676 10.6218 9.05286 10.5418C9.10897 10.4618 9.18889 10.4015 9.28125 10.3695C9.35203 10.3445 9.42779 10.3369 9.50215 10.3472C9.57651 10.3576 9.6473 10.3856 9.70855 10.429C9.76981 10.4725 9.81974 10.5299 9.85414 10.5967C9.88854 10.6634 9.90641 10.7374 9.90625 10.8125C9.90532 11.6825 9.55932 12.5165 8.94417 13.1317C8.32901 13.7468 7.49496 14.0928 6.625 14.0938Z" fill="#B3B3B3"/>
</svg>
