<svg width="22" height="22" viewBox="0 0 22 22" fill="none" xmlns="http://www.w3.org/2000/svg">
<g clip-path="url(#clip0_111_2451)">
<rect width="22" height="22" rx="4" fill="#CFF0B4"/>
<g clip-path="url(#clip1_111_2451)">
<path d="M14.5158 9.52345L14.4874 9.99421C12.7961 10.0783 11.4511 11.4753 11.4511 13.1869C11.4511 14.5351 12.2884 15.6902 13.4718 16.1575C13.2953 16.2483 13.0953 16.2988 12.885 16.2988H10.1279V11.2516C11.6578 11.1053 12.8682 9.79746 12.8699 8.22207C12.8699 8.20027 12.8699 8.18 12.8682 8.1582H13.233C13.9745 8.15839 14.5629 8.78365 14.5158 9.52345Z" fill="#2B2B2B"/>
<path d="M6.74321 8.22292C6.74321 8.20112 6.74321 8.1797 6.74416 8.15771H6.37895C5.63763 8.15771 5.05003 8.78298 5.09631 9.52277L5.44431 15.0937C5.48657 15.771 6.04835 16.2985 6.72696 16.2985H9.48422V11.2523C7.95415 11.1052 6.74378 9.79754 6.74321 8.22292Z" fill="#2B2B2B"/>
<path d="M11.3867 10.0829C11.5894 10.0829 11.7538 9.91852 11.7538 9.71576C11.7538 9.513 11.5894 9.34863 11.3867 9.34863C11.1839 9.34863 11.0195 9.513 11.0195 9.71576C11.0195 9.91852 11.1839 10.0829 11.3867 10.0829Z" fill="#2B2B2B"/>
<path d="M10.3717 10.6745C10.543 10.6745 10.6818 10.5356 10.6818 10.3643C10.6818 10.1931 10.543 10.0542 10.3717 10.0542C10.2004 10.0542 10.0615 10.1931 10.0615 10.3643C10.0615 10.5356 10.2004 10.6745 10.3717 10.6745Z" fill="#2B2B2B"/>
<path d="M9.16892 10.685C9.32046 10.685 9.44331 10.5622 9.44331 10.4106C9.44331 10.2591 9.32046 10.1362 9.16892 10.1362C9.01738 10.1362 8.89453 10.2591 8.89453 10.4106C8.89453 10.5622 9.01738 10.685 9.16892 10.685Z" fill="#2B2B2B"/>
<path d="M8.17175 10.0759C8.26552 10.0759 8.34154 9.9999 8.34154 9.90612C8.34154 9.81235 8.26552 9.73633 8.17175 9.73633C8.07797 9.73633 8.00195 9.81235 8.00195 9.90612C8.00195 9.9999 8.07797 10.0759 8.17175 10.0759Z" fill="#2B2B2B"/>
<path d="M12.3313 8.21254C12.3313 8.46494 12.294 8.70892 12.2246 8.93895L11.5058 8.72651C11.5674 8.53817 11.6005 8.33702 11.6005 8.12802C11.6005 7.9196 11.5674 7.71864 11.5062 7.53068C11.3848 7.15782 11.1531 6.83505 10.8496 6.60082C10.8408 6.59394 10.8318 6.58705 10.823 6.58036C10.6886 6.47825 10.5366 6.39087 10.3733 6.32395C10.2681 6.28112 10.158 6.24804 10.0452 6.22375L10.0025 6.21438L9.95972 6.2075C9.93142 6.20272 9.90178 6.19736 9.87558 6.19469L9.83505 6.1901C9.82147 6.18838 9.80904 6.18647 9.79107 6.18589L9.74173 6.18302L9.71726 6.18149L9.70464 6.18092L9.69871 6.18054L9.69584 6.18035H9.69336C9.46123 6.17308 9.22642 6.20425 9.00653 6.27461C8.78453 6.34651 8.57707 6.45473 8.39733 6.59049C8.21797 6.72645 8.065 6.88687 7.94626 7.0582C7.91548 7.10045 7.88852 7.14424 7.86175 7.18765C7.84855 7.20945 7.83708 7.23143 7.82446 7.25323C7.81184 7.27503 7.80056 7.29721 7.79004 7.3192C7.74453 7.40697 7.70954 7.49645 7.67933 7.58288C7.66518 7.62667 7.65046 7.66931 7.63975 7.71214C7.6344 7.73336 7.6279 7.7544 7.6235 7.77543C7.61872 7.79665 7.61413 7.81731 7.60992 7.83815C7.60782 7.84828 7.60552 7.85861 7.60342 7.86836C7.60151 7.87868 7.59979 7.88882 7.59807 7.89914C7.59482 7.91922 7.59157 7.93949 7.58832 7.95899C7.58239 7.99838 7.57914 8.0349 7.57474 8.07142C7.57149 8.10967 7.56958 8.14982 7.56728 8.18692L7.56709 8.19418C7.56709 8.19418 7.56709 8.19571 7.56671 8.19571V8.19743L7.56652 8.21063C7.56613 8.21923 7.56613 8.22803 7.56594 8.23625C7.56594 8.25365 7.56556 8.27009 7.56594 8.28654C7.56613 8.35212 7.56939 8.41235 7.57436 8.46647C7.5843 8.57488 7.60036 8.65959 7.6126 8.71676C7.61853 8.74544 7.62312 8.76533 7.62713 8.78158C7.63096 8.79707 7.63325 8.8051 7.63325 8.8051L7.40724 8.86973C7.40724 8.86973 7.40475 8.86208 7.39978 8.8466C7.395 8.83245 7.38697 8.80625 7.37798 8.77508C7.36823 8.74047 7.35638 8.69649 7.34471 8.64372C7.32043 8.50375 7.30762 8.35996 7.30762 8.21292C7.30762 6.82568 8.43232 5.70117 9.81956 5.70117C10.4446 5.70117 11.0163 5.92948 11.4558 6.30712C11.6491 6.47309 11.8168 6.66794 11.9518 6.88496C12.1923 7.26987 12.3313 7.72495 12.3313 8.21254Z" fill="#2B2B2B"/>
<path d="M10.9754 7.50438C10.9284 7.43344 10.8544 7.41279 10.7789 7.4495C10.6961 7.49004 10.6156 7.53727 10.5368 7.58354L10.5175 7.59482C10.3903 7.66959 10.2635 7.74511 10.1368 7.82045L9.92108 7.94837C9.77996 7.8889 9.61208 7.90516 9.4855 7.99159C9.46294 8.00688 9.44133 8.02466 9.42144 8.04436C9.26484 8.19943 9.24132 8.44437 9.3658 8.62679C9.45089 8.75146 9.592 8.82584 9.74306 8.82584C9.80693 8.82584 9.86869 8.81284 9.92682 8.78721C9.95186 8.77632 9.97691 8.76255 10.0006 8.7463C10.1287 8.65891 10.2043 8.50939 10.1995 8.3545C10.3217 8.24896 10.5098 8.08987 10.6616 7.96137L10.6746 7.95028C10.8167 7.83001 10.9291 7.73517 10.9529 7.71337C11.0165 7.65486 11.0249 7.57876 10.9754 7.50438Z" fill="#2B2B2B"/>
<path d="M16.838 12.6421C16.5301 11.3897 15.2815 10.6134 14.0272 10.883C14.0119 10.8868 13.9966 10.8907 13.9813 10.8945C13.8206 10.9346 13.6581 10.992 13.5032 11.0666C13.3904 11.1201 13.2891 11.1775 13.1916 11.2425C12.3923 11.7836 11.9755 12.7817 12.2183 13.776C12.53 15.0495 13.8187 15.8315 15.0941 15.518C16.3695 15.2063 17.1496 13.9175 16.838 12.6421ZM16.1152 13.5829H14.9105V14.7952H14.1476V13.5982H12.9392V12.8334H14.1342V11.623H14.9048V12.8276H16.1152V13.5829Z" fill="#2B2B2B"/>
</g>
</g>
<defs>
<clipPath id="clip0_111_2451">
<rect width="22" height="22" fill="white"/>
</clipPath>
<clipPath id="clip1_111_2451">
<rect width="14" height="14" fill="white" transform="translate(4 4)"/>
</clipPath>
</defs>
</svg>
